<?xml version="1.0" encoding="utf-8"?>
<!-- Generator: Adobe Illustrator 28.0.0, SVG Export Plug-In . SVG Version: 6.00 Build 0)  -->
<svg version="1.1" id="Camada_1" xmlns="http://www.w3.org/2000/svg" xmlns:xlink="http://www.w3.org/1999/xlink" x="0px" y="0px"
	 viewBox="0 0 38 24" style="enable-background:new 0 0 38 24;" xml:space="preserve">
<style type="text/css">
	.st0{opacity:7.000000e-02;enable-background:new    ;}
	.st1{fill:#006FCF;}
	.st2{fill:#FFFFFF;}
</style>
<g>
	<path class="st0" d="M35,0H3C1.3,0,0,1.3,0,3v18c0,1.7,1.4,3,3,3h32c1.7,0,3-1.3,3-3V3C38,1.3,36.6,0,35,0z"/>
	<path class="st1" d="M35,1c1.1,0,2,0.9,2,2v18c0,1.1-0.9,2-2,2H3c-1.1,0-2-0.9-2-2V3c0-1.1,0.9-2,2-2H35"/>
	<path class="st2" d="M9,10.3l0.8,1.9H8.2L9,10.3z M25,10.3h-3v0.8H25v1.2h-2.9v0.9h3v0.7l2.1-2.2l-2.1-2.3L25,10.3L25,10.3z M11,8
		h4l0.9,1.9L16.7,8h10.4l1.1,1.2L29.2,8H34l-3.5,3.9l3.5,3.8h-4.8l-1.1-1.2l-1.1,1.2H10l-0.5-1.2H8.4l-0.5,1.2H4L7.3,8h3.4L11,8z
		 M19.6,9.1h-2.2l-1.5,3.5l-1.6-3.5h-2.2v4.8L10,9.1H8l-2.4,5.5h1.6l0.5-1.2h2.6l0.5,1.2h2.7v-3.9l1.8,3.9h1.2l1.7-3.9v3.9h1.5
		L19.6,9.1L19.6,9.1z M29,11.9l2.5-2.8h-1.8l-1.6,1.7l-1.5-1.7h-5.9v5.5h5.8l1.6-1.7l1.5,1.7h1.9L29,11.9L29,11.9z"/>
</g>
</svg>
